<?xml version="1.0" encoding="UTF-8" standalone="no"?>
<svg
   xmlns:dc="http://purl.org/dc/elements/1.1/"
   xmlns:cc="http://creativecommons.org/ns#"
   xmlns:rdf="http://www.w3.org/1999/02/22-rdf-syntax-ns#"
   xmlns:svg="http://www.w3.org/2000/svg"
   xmlns="http://www.w3.org/2000/svg"
   viewBox="0 0 158.74001 60.472401"
   xml:space="preserve"
   id="svg10"
   version="1.1"><metadata
     id="metadata16"><rdf:RDF><cc:Work
         rdf:about=""><dc:format>image/svg+xml</dc:format><dc:type
           rdf:resource="http://purl.org/dc/dcmitype/StillImage" /><dc:title></dc:title></cc:Work></rdf:RDF></metadata><defs
     id="defs14"><clipPath
       id="clipPath40"
       clipPathUnits="userSpaceOnUse"><path
         id="path38"
         d="M 0,45.354 H 119.055 V 0 H 0 Z" /></clipPath></defs><g
     transform="matrix(1.3333333,0,0,-1.3333333,0,60.4724)"
     id="g18"><path
       id="path20"
       style="fill:#ed1952;fill-opacity:1;fill-rule:nonzero;stroke:none"
       d="M 23.834,12.304 H 3.089 v 20.747 h 20.745 z" /><path
       id="path22"
       style="fill:#ed1952;fill-opacity:1;fill-rule:nonzero;stroke:none"
       d="M 46.655,12.304 H 25.909 v 20.747 h 20.746 z" /><path
       id="path24"
       style="fill:#ed1952;fill-opacity:1;fill-rule:nonzero;stroke:none"
       d="M 69.475,12.304 H 48.73 v 20.747 h 20.745 z" /><path
       id="path26"
       style="fill:#ed1952;fill-opacity:1;fill-rule:nonzero;stroke:none"
       d="M 34.208,1.931 H 13.461 v 20.747 h 20.747 z" /><path
       id="path28"
       style="fill:#ed1952;fill-opacity:1;fill-rule:nonzero;stroke:none"
       d="M 59.101,22.677 H 38.357 v 20.746 h 20.744 z" /><g
       transform="translate(78.1934,29.7222)"
       id="g30"><path
         id="path32"
         style="fill:#231f20;fill-opacity:1;fill-rule:nonzero;stroke:none"
         d="m 0,0 h -6.643 v 3.319 h 17.12 V 0 H 3.836 V -17.374 H 0 Z" /></g><g
       id="g34"><g
         clip-path="url(#clipPath40)"
         id="g36"><g
           transform="translate(107.918,19.9521)"
           id="g42"><path
             id="path44"
             style="fill:#231f20;fill-opacity:1;fill-rule:nonzero;stroke:none"
             d="m 0,0 c 0,-1.246 -0.225,-2.371 -0.672,-3.375 -0.449,-1.004 -1.06,-1.855 -1.836,-2.557 -0.775,-0.703 -1.689,-1.242 -2.75,-1.621 -1.06,-0.381 -2.211,-0.57 -3.455,-0.57 -1.242,0 -2.394,0.189 -3.455,0.57 -1.061,0.379 -1.982,0.918 -2.766,1.621 -0.785,0.702 -1.398,1.553 -1.834,2.557 -0.439,1.004 -0.658,2.129 -0.658,3.375 v 13.089 h 3.838 V 0.131 c 0,-0.504 0.08,-1.035 0.244,-1.59 0.164,-0.555 0.434,-1.066 0.813,-1.533 0.379,-0.467 0.879,-0.852 1.504,-1.153 0.621,-0.3 1.392,-0.451 2.314,-0.451 0.92,0 1.692,0.151 2.315,0.451 0.623,0.301 1.125,0.686 1.503,1.153 0.377,0.467 0.649,0.978 0.813,1.533 0.162,0.555 0.244,1.086 0.244,1.59 V 13.089 H 0 Z" /></g><g
           transform="translate(86.3457,9.4971)"
           id="g46"><path
             id="path48"
             style="fill:#231f20;fill-opacity:1;fill-rule:nonzero;stroke:none"
             d="m 0,0 c -0.76,0.328 -1.746,0.486 -2.533,0.486 -2.293,0 -3.561,-1.443 -3.561,-3.318 0,-1.861 1.239,-3.264 3.334,-3.264 0.535,0 0.959,0.053 1.297,0.131 v 2.387 h -2.084 v 1.441 h 3.969 v -4.929 c -1.041,-0.262 -2.125,-0.471 -3.182,-0.471 -3.179,0 -5.39,1.48 -5.39,4.574 0,3.135 2.056,4.891 5.39,4.891 1.141,0 2.041,-0.145 2.887,-0.381 z" /></g><g
           transform="translate(88.709,8.8682)"
           id="g50"><path
             id="path52"
             style="fill:#231f20;fill-opacity:1;fill-rule:nonzero;stroke:none"
             d="m 0,0 h 1.676 v -1.533 h 0.029 c 0.084,0.629 0.858,1.691 1.983,1.691 0.183,0 0.382,0 0.578,-0.053 V -1.666 C 4.098,-1.574 3.76,-1.521 3.42,-1.521 1.887,-1.521 1.887,-3.305 1.887,-4.273 V -6.752 H 0 Z" /></g><g
           transform="translate(96.6758,3.2432)"
           id="g54"><path
             id="path56"
             style="fill:#231f20;fill-opacity:1;fill-rule:nonzero;stroke:none"
             d="m 0,0 c 0.578,0 1.027,0.236 1.322,0.604 0.311,0.38 0.395,0.865 0.395,1.39 H 0.9 C 0.057,1.994 -1.195,1.863 -1.195,0.826 -1.195,0.25 -0.676,0 0,0 m -2.211,5.271 c 0.732,0.315 1.719,0.512 2.522,0.512 2.209,0 3.123,-0.853 3.123,-2.845 V 2.072 c 0,-0.681 0.015,-1.193 0.029,-1.691 0.014,-0.512 0.041,-0.983 0.084,-1.508 h -1.66 c -0.071,0.354 -0.071,0.801 -0.084,1.01 h -0.03 c -0.435,-0.746 -1.38,-1.166 -2.238,-1.166 -1.279,0 -2.533,0.72 -2.533,2.006 0,1.007 0.519,1.597 1.238,1.925 0.719,0.329 1.647,0.395 2.436,0.395 h 1.041 c 0,1.088 -0.52,1.455 -1.633,1.455 -0.801,0 -1.604,-0.289 -2.236,-0.734 z" /></g><g
           transform="translate(101.6582,8.8682)"
           id="g58"><path
             id="path60"
             style="fill:#231f20;fill-opacity:1;fill-rule:nonzero;stroke:none"
             d="M 0,0 H 5.742 V -1.441 L 2.139,-5.389 h 3.73 v -1.363 h -6.023 v 1.43 l 3.672,3.959 -3.518,0 z" /></g><path
           id="path62"
           style="fill:#ed1952;fill-opacity:1;fill-rule:nonzero;stroke:none"
           d="m 109.055,1.931 h 6.91 v 6.912 h -6.91 z" /></g></g></g></svg>
