<svg viewBox="0 0 100 100"
  version="1.1"
  baseProfile="full"
  xmlns="http://www.w3.org/2000/svg"
  xmlns:xlink="http://www.w3.org/1999/xlink"
>
<line x1="6" y1="30" x2="94" y2="30" style="stroke:black;stroke-width:8"/>
<line x1="10" y1="30" x2="10" y2="80" style="stroke:black;stroke-width:8"/>
<line x1="22" y1="23" x2="30" y2="23" style="stroke:black;stroke-width:8"/>
<line x1="70" y1="23" x2="78" y2="23" style="stroke:black;stroke-width:8"/>
<line x1="90" y1="30" x2="90" y2="80" style="stroke:black;stroke-width:8"/>
<line x1="6" y1="80" x2="30" y2="80" style="stroke:black;stroke-width:8"/>
<line x1="94" y1="80" x2="70" y2="80" style="stroke:black;stroke-width:8"/>

<line x1="6" y1="33" x2="94" y2="33" style="stroke:black;stroke-width:8"/>
<line x1="6" y1="40" x2="20" y2="40" style="stroke:black;stroke-width:12"/>
<line x1="33" y1="40" x2="94" y2="40" style="stroke:black;stroke-width:12"/>
<line x1="6" y1="55" x2="94" y2="55" style="stroke:black;stroke-width:24"/>
<line x1="6" y1="75" x2="30" y2="75" style="stroke:black;stroke-width:24"/>
<line x1="94" y1="75" x2="70" y2="75" style="stroke:black;stroke-width:24"/>

<line x1="35" y1="73" x2="65" y2="73" style="stroke:black;stroke-width:4"/>
<line x1="35" y1="83" x2="65" y2="83" style="stroke:black;stroke-width:4"/>

<rect x="30" y="5" width="40" height="25" rx="5" ry="5" style="fill:none;stroke-width:4;stroke:black" />
<rect x="30" y="65" width="40" height="30" rx="5" ry="5" style="fill:none;stroke-width:4;stroke:black" />
</svg>