<svg xmlns="http://www.w3.org/2000/svg"
     shape-rendering="geometricPrecision"
     text-rendering="geometricPrecision"
     image-rendering="optimizeQuality"
     fill-rule="evenodd"
     clip-rule="evenodd"
     viewBox="0 0 320 512.29">

  <style>
    @media (prefers-color-scheme: light) {
    .asc-top   { fill: #1a73e8; }   /* light-mode blue */
    .asc-rest  { fill: #000000; }   /* dark paths */
    }
    @media (prefers-color-scheme: dark) {
    .asc-top   { fill: #8ab4f8; }   /* softer blue for dark mode */
    .asc-rest  { fill: #ffffff; }   /* white in dark mode */
    }
  </style>

  <!-- Top triangle -->
  <path class="asc-top" d="M51.49 169.41h218.18L163.39 40.96 51.49 169.41z"/>

  <!-- Remaining paths -->
  <path class="asc-rest" d="M16.1 310.66h287.79c8.9 0 16.11 7.21 16.11 16.11 0 4.18-1.59 7.98-4.2 10.85L176.1 506.46c-5.66 6.85-15.82 7.8-22.66 2.14l-1.88-1.83L3.96 337.34c-5.84-6.7-5.14-16.88 1.57-22.71a16.09 16.09 0 0 1 10.57-3.97zm253.57 32.22H51.49l111.9 128.45 106.28-128.45zm34.22-141.25H16.1c-3.75 0-7.52-1.31-10.57-3.96-6.71-5.84-7.41-16.01-1.57-22.72L151.55 5.52l1.89-1.83c6.84-5.66 17-4.7 22.66 2.14l139.7 168.84c2.61 2.87 4.2 6.68 4.2 10.85 0 8.9-7.21 16.11-16.11 16.11z"/>
</svg>
