<?xml version="1.0" encoding="UTF-8" standalone="no"?>
<svg
   xmlns:dc="http://purl.org/dc/elements/1.1/"
   xmlns:cc="http://creativecommons.org/ns#"
   xmlns:rdf="http://www.w3.org/1999/02/22-rdf-syntax-ns#"
   xmlns:svg="http://www.w3.org/2000/svg"
   xmlns="http://www.w3.org/2000/svg"
   viewBox="0 0 690.66669 580"
   height="580"
   width="690.66669"
   xml:space="preserve"
   id="svg2"
   version="1.1"><metadata
     id="metadata8"><rdf:RDF><cc:Work
         rdf:about=""><dc:format>image/svg+xml</dc:format><dc:type
           rdf:resource="http://purl.org/dc/dcmitype/StillImage" /><dc:title></dc:title></cc:Work></rdf:RDF></metadata><defs
     id="defs6" /><g
     transform="matrix(1.3333333,0,0,1.3333333,0,1.45e-5)"
     id="g10"><g
       id="g12"><g
         id="g14"><path
           id="path16"
           style="fill:#ffffff;fill-opacity:1;fill-rule:nonzero;stroke:#ffffff;stroke-width:1.25;stroke-linecap:butt;stroke-linejoin:miter;stroke-miterlimit:4;stroke-dasharray:none;stroke-opacity:1"
           d="m 0.133,0 h 517.23 V 435 H 0.133 Z" /></g><g
         transform="scale(1,0.805554)"
         id="g18"><path
           id="path20"
           style="fill:none;stroke:#000000;stroke-width:0.87950498;stroke-linecap:butt;stroke-linejoin:miter;stroke-miterlimit:4;stroke-dasharray:none;stroke-opacity:1"
           d="M 324.543,37.61 H 498.684 V 209.987 H 324.543 Z" /></g><g
         id="g22"><path
           id="path24"
           style="fill:#add8e6;fill-opacity:1;fill-rule:nonzero;stroke:#000000;stroke-width:1.25;stroke-linecap:butt;stroke-linejoin:miter;stroke-miterlimit:4;stroke-dasharray:none;stroke-opacity:1"
           d="m 184.957,47.5 c 0,-12.426 -30.82,-22.5 -68.844,-22.5 -38.019,0 -68.84,10.074 -68.84,22.5 0,12.426 30.821,22.5 68.84,22.5 38.024,0 68.844,-10.074 68.844,-22.5 z" /></g><text
         id="text28"
         style="font-variant:normal;font-weight:normal;font-size:17.4987793px;font-family:Tahoma;-inkscape-font-specification:Tahoma;writing-mode:lr-tb;fill:#000000;fill-opacity:1;fill-rule:nonzero;stroke:none"
         transform="translate(76.757809,52.75002)"><tspan
           id="tspan26"
           y="0"
           x="0 11.864172 21.348511 29.415447 39.162266 53.73875 62.943108 72.689926">Document</tspan></text>
<g
         id="g30"><path
           id="path32"
           style="fill:#add8e6;fill-opacity:1;fill-rule:nonzero;stroke:#000000;stroke-width:1.25;stroke-linecap:butt;stroke-linejoin:miter;stroke-miterlimit:4;stroke-dasharray:none;stroke-opacity:1"
           d="m 166.871,137.5 c 0,-12.426 -22.726,-22.5 -50.758,-22.5 -28.031,0 -50.754,10.074 -50.754,22.5 0,12.426 22.723,22.5 50.754,22.5 28.032,0 50.758,-10.074 50.758,-22.5 z" /></g><text
         id="text36"
         style="font-variant:normal;font-weight:normal;font-size:17.4987793px;font-family:Tahoma;-inkscape-font-specification:Tahoma;writing-mode:lr-tb;fill:#000000;fill-opacity:1;fill-rule:nonzero;stroke:none"
         transform="translate(86.230465,142.75002)"><tspan
           id="tspan34"
           y="0"
           x="0 12.721612 22.468431 28.313025 42.994499 46.87923">&lt;html&gt;</tspan></text>
<g
         id="g38"><path
           id="path40"
           style="fill:none;stroke:#000000;stroke-width:1.25;stroke-linecap:butt;stroke-linejoin:miter;stroke-miterlimit:4;stroke-dasharray:none;stroke-opacity:1"
           d="m 116.113,70.211 c 0,9.625 0,21.07 0,31.769" /></g><g
         id="g42"><path
           id="path44"
           style="fill:#000000;fill-opacity:1;fill-rule:nonzero;stroke:#000000;stroke-width:1.25;stroke-linecap:butt;stroke-linejoin:miter;stroke-miterlimit:4;stroke-dasharray:none;stroke-opacity:1"
           d="m 120.492,101.984 -4.379,12.5 -4.371,-12.5 z" /></g><g
         id="g46"><path
           id="path48"
           style="fill:#add8e6;fill-opacity:1;fill-rule:nonzero;stroke:#000000;stroke-width:1.25;stroke-linecap:butt;stroke-linejoin:miter;stroke-miterlimit:4;stroke-dasharray:none;stroke-opacity:1"
           d="m 114.336,227.5 c 0,-12.426 -24.387,-22.5 -54.473,-22.5 -30.082,0 -54.468,10.074 -54.468,22.5 0,12.426 24.386,22.5 54.468,22.5 30.086,0 54.473,-10.074 54.473,-22.5 z" /></g><text
         id="text52"
         style="font-variant:normal;font-weight:normal;font-size:17.4987793px;font-family:Tahoma;-inkscape-font-specification:Tahoma;writing-mode:lr-tb;fill:#000000;fill-opacity:1;fill-rule:nonzero;stroke:none"
         transform="translate(28.222654,232.75)"><tspan
           id="tspan50"
           y="0"
           x="0 12.721612 22.468431 31.672791 40.842152 50.396484">&lt;head&gt;</tspan></text>
<g
         id="g54"><path
           id="path56"
           style="fill:none;stroke:#000000;stroke-width:1.25;stroke-linecap:butt;stroke-linejoin:miter;stroke-miterlimit:4;stroke-dasharray:none;stroke-opacity:1"
           d="M 102.5,159.285 C 95.848,169.93 87.703,182.961 80.32,194.77" /></g><g
         id="g58"><path
           id="path60"
           style="fill:#000000;fill-opacity:1;fill-rule:nonzero;stroke:#000000;stroke-width:1.25;stroke-linecap:butt;stroke-linejoin:miter;stroke-miterlimit:4;stroke-dasharray:none;stroke-opacity:1"
           d="m 83.887,197.32 -10.336,8.282 2.914,-12.918 z" /></g><g
         id="g62"><path
           id="path64"
           style="fill:#add8e6;fill-opacity:1;fill-rule:nonzero;stroke:#000000;stroke-width:1.25;stroke-linecap:butt;stroke-linejoin:miter;stroke-miterlimit:4;stroke-dasharray:none;stroke-opacity:1"
           d="m 245.484,227.5 c 0,-12.426 -24.339,-22.5 -54.371,-22.5 -30.027,0 -54.367,10.074 -54.367,22.5 0,12.426 24.34,22.5 54.367,22.5 30.032,0 54.371,-10.074 54.371,-22.5 z" /></g><text
         id="text68"
         style="font-variant:normal;font-weight:normal;font-size:17.4987793px;font-family:Tahoma;-inkscape-font-specification:Tahoma;writing-mode:lr-tb;fill:#000000;fill-opacity:1;fill-rule:nonzero;stroke:none"
         transform="translate(159.60547,232.75)"><tspan
           id="tspan66"
           y="0"
           x="0 12.721612 22.380938 31.865276 41.419609 50.134003">&lt;body&gt;</tspan></text>
<g
         id="g70"><path
           id="path72"
           style="fill:none;stroke:#000000;stroke-width:1.25;stroke-linecap:butt;stroke-linejoin:miter;stroke-miterlimit:4;stroke-dasharray:none;stroke-opacity:1"
           d="m 133.891,158.828 c 9.203,11.047 20.625,24.754 30.836,37.008" /></g><g
         id="g74"><path
           id="path76"
           style="fill:#000000;fill-opacity:1;fill-rule:nonzero;stroke:#000000;stroke-width:1.25;stroke-linecap:butt;stroke-linejoin:miter;stroke-miterlimit:4;stroke-dasharray:none;stroke-opacity:1"
           d="m 168.305,193.297 4.644,12.402 -11.363,-6.801 z" /></g><g
         id="g78"><path
           id="path80"
           style="fill:#add8e6;fill-opacity:1;fill-rule:nonzero;stroke:#000000;stroke-width:1.25;stroke-linecap:butt;stroke-linejoin:miter;stroke-miterlimit:4;stroke-dasharray:none;stroke-opacity:1"
           d="m 106.328,317.5 c 0,-12.426 -20.801,-22.5 -46.465,-22.5 -25.66,0 -46.461,10.074 -46.461,22.5 0,12.426 20.801,22.5 46.461,22.5 25.664,0 46.465,-10.074 46.465,-22.5 z" /></g><text
         id="text84"
         style="font-variant:normal;font-weight:normal;font-size:17.4987793px;font-family:Tahoma;-inkscape-font-specification:Tahoma;writing-mode:lr-tb;fill:#000000;fill-opacity:1;fill-rule:nonzero;stroke:none"
         transform="translate(32.675779,322.75)"><tspan
           id="tspan82"
           y="0"
           x="0 12.721612 18.566204 22.555925 28.400518 32.285248 41.489605">&lt;title&gt;</tspan></text>
<g
         id="g86"><path
           id="path88"
           style="fill:none;stroke:#000000;stroke-width:1.25;stroke-linecap:butt;stroke-linejoin:miter;stroke-miterlimit:4;stroke-dasharray:none;stroke-opacity:1"
           d="m 59.863,250.211 c 0,9.625 0,21.07 0,31.769" /></g><g
         id="g90"><path
           id="path92"
           style="fill:#000000;fill-opacity:1;fill-rule:nonzero;stroke:#000000;stroke-width:1.25;stroke-linecap:butt;stroke-linejoin:miter;stroke-miterlimit:4;stroke-dasharray:none;stroke-opacity:1"
           d="m 64.242,281.984 -4.379,12.5 -4.371,-12.5 z" /></g><g
         id="g94"><path
           id="path96"
           style="fill:#add8e6;fill-opacity:1;fill-rule:nonzero;stroke:#000000;stroke-width:1.25;stroke-linecap:butt;stroke-linejoin:miter;stroke-miterlimit:4;stroke-dasharray:none;stroke-opacity:1"
           d="m 231.242,317.5 c 0,-12.426 -18.527,-22.5 -41.379,-22.5 -22.851,0 -41.375,10.074 -41.375,22.5 0,12.426 18.524,22.5 41.375,22.5 22.852,0 41.379,-10.074 41.379,-22.5 z" /></g><text
         id="text100"
         style="font-variant:normal;font-weight:normal;font-size:17.4987793px;font-family:Tahoma;-inkscape-font-specification:Tahoma;writing-mode:lr-tb;fill:#000000;fill-opacity:1;fill-rule:nonzero;stroke:none"
         transform="translate(167.48047,322.75)"><tspan
           id="tspan98"
           y="0"
           x="0 12.721612 22.468431 32.005268">&lt;h1&gt;</tspan></text>
<g
         id="g102"><path
           id="path104"
           style="fill:none;stroke:#000000;stroke-width:1.25;stroke-linecap:butt;stroke-linejoin:miter;stroke-miterlimit:4;stroke-dasharray:none;stroke-opacity:1"
           d="m 190.801,250.211 c -0.137,9.625 -0.293,21.07 -0.442,31.769" /></g><g
         id="g106"><path
           id="path108"
           style="fill:#000000;fill-opacity:1;fill-rule:nonzero;stroke:#000000;stroke-width:1.25;stroke-linecap:butt;stroke-linejoin:miter;stroke-miterlimit:4;stroke-dasharray:none;stroke-opacity:1"
           d="m 194.734,282.047 -4.55,12.437 -4.2,-12.558 z" /></g><g
         id="g110"><path
           id="path112"
           style="fill:#add8e6;fill-opacity:1;fill-rule:nonzero;stroke:#000000;stroke-width:1.25;stroke-linecap:butt;stroke-linejoin:miter;stroke-miterlimit:4;stroke-dasharray:none;stroke-opacity:1"
           d="m 347.195,317.5 c 0,-12.426 -15.593,-22.5 -34.832,-22.5 -19.234,0 -34.832,10.074 -34.832,22.5 0,12.426 15.598,22.5 34.832,22.5 19.239,0 34.832,-10.074 34.832,-22.5 z" /></g><text
         id="text116"
         style="font-variant:normal;font-weight:normal;font-size:17.4987793px;font-family:Tahoma;-inkscape-font-specification:Tahoma;writing-mode:lr-tb;fill:#000000;fill-opacity:1;fill-rule:nonzero;stroke:none"
         transform="translate(295.04295,322.75)"><tspan
           id="tspan114"
           y="0"
           x="0 12.721612 21.890972">&lt;a&gt;</tspan></text>
<g
         id="g118"><path
           id="path120"
           style="fill:none;stroke:#000000;stroke-width:1.25;stroke-linecap:butt;stroke-linejoin:miter;stroke-miterlimit:4;stroke-dasharray:none;stroke-opacity:1"
           d="m 218.023,247.473 c 18.016,13.371 41.852,31.066 61.055,45.32" /></g><g
         id="g122"><path
           id="path124"
           style="fill:#000000;fill-opacity:1;fill-rule:nonzero;stroke:#000000;stroke-width:1.25;stroke-linecap:butt;stroke-linejoin:miter;stroke-miterlimit:4;stroke-dasharray:none;stroke-opacity:1"
           d="m 281.777,289.348 7.43,10.961 -12.644,-3.938 z" /></g><g
         id="g126"><path
           id="path128"
           style="fill:#d3d3d3;fill-opacity:1;fill-rule:nonzero;stroke:#000000;stroke-width:1.25;stroke-linecap:butt;stroke-linejoin:miter;stroke-miterlimit:4;stroke-dasharray:none;stroke-opacity:1"
           d="M 19.801,385 H 99.93 v 45 H 19.801 Z" /></g><text
         id="text132"
         style="font-variant:normal;font-weight:normal;font-size:17.4987793px;font-family:Tahoma;-inkscape-font-specification:Tahoma;writing-mode:lr-tb;fill:#000000;fill-opacity:1;fill-rule:nonzero;stroke:none"
         transform="translate(30.621092,412.75)"><tspan
           id="tspan130"
           y="0"
           x="0 7.0170102 16.76383 20.753551 24.743273 34.402599 43.501965 51.306419">&quot;Slides&quot;</tspan></text>
<g
         id="g134"><path
           id="path136"
           style="fill:none;stroke:#000000;stroke-width:1.25;stroke-linecap:butt;stroke-linejoin:miter;stroke-miterlimit:4;stroke-dasharray:none;stroke-opacity:1"
           d="m 59.863,340.211 c 0,9.625 0,21.07 0,31.769" /></g><g
         id="g138"><path
           id="path140"
           style="fill:#000000;fill-opacity:1;fill-rule:nonzero;stroke:#000000;stroke-width:1.25;stroke-linecap:butt;stroke-linejoin:miter;stroke-miterlimit:4;stroke-dasharray:none;stroke-opacity:1"
           d="m 64.242,371.984 -4.379,12.5 -4.371,-12.5 z" /></g><g
         id="g142"><path
           id="path144"
           style="fill:#d3d3d3;fill-opacity:1;fill-rule:nonzero;stroke:#000000;stroke-width:1.25;stroke-linecap:butt;stroke-linejoin:miter;stroke-miterlimit:4;stroke-dasharray:none;stroke-opacity:1"
           d="m 123.191,385 h 133.348 v 45 H 123.191 Z" /></g><text
         id="text148"
         style="font-variant:normal;font-weight:normal;font-size:17.4987793px;font-family:Tahoma;-inkscape-font-specification:Tahoma;writing-mode:lr-tb;fill:#000000;fill-opacity:1;fill-rule:nonzero;stroke:none"
         transform="translate(134.09375,412.75)"><tspan
           id="tspan146"
           y="0"
           x="0 7.0170102 16.76383 20.753551 24.743273 34.402599 43.501965 48.961582 60.773258 69.977615 79.14698 88.806305 97.90567 104.20523">&quot;Slide Header&quot;</tspan></text>
<g
         id="g150"><path
           id="path152"
           style="fill:none;stroke:#000000;stroke-width:1.25;stroke-linecap:butt;stroke-linejoin:miter;stroke-miterlimit:4;stroke-dasharray:none;stroke-opacity:1"
           d="m 189.863,340.211 c 0,9.625 0,21.07 0,31.769" /></g><g
         id="g154"><path
           id="path156"
           style="fill:#000000;fill-opacity:1;fill-rule:nonzero;stroke:#000000;stroke-width:1.25;stroke-linecap:butt;stroke-linejoin:miter;stroke-miterlimit:4;stroke-dasharray:none;stroke-opacity:1"
           d="m 194.242,371.984 -4.379,12.5 -4.371,-12.5 z" /></g><g
         id="g158"><path
           id="path160"
           style="fill:#d3d3d3;fill-opacity:1;fill-rule:nonzero;stroke:#000000;stroke-width:1.25;stroke-linecap:butt;stroke-linejoin:miter;stroke-miterlimit:4;stroke-dasharray:none;stroke-opacity:1"
           d="m 278.613,385 h 67.5 v 45 h -67.5 z" /></g><text
         id="text164"
         style="font-variant:normal;font-weight:normal;font-size:17.4987793px;font-family:Tahoma;-inkscape-font-specification:Tahoma;writing-mode:lr-tb;fill:#000000;fill-opacity:1;fill-rule:nonzero;stroke:none"
         transform="translate(289.74998,412.75)"><tspan
           id="tspan162"
           y="0"
           x="0 7.0170102 15.713903 19.703625 29.450445 38.164837">&quot;Link&quot;</tspan></text>
<g
         id="g166"><path
           id="path168"
           style="fill:none;stroke:#000000;stroke-width:1.25;stroke-linecap:butt;stroke-linejoin:miter;stroke-miterlimit:4;stroke-dasharray:none;stroke-opacity:1"
           d="m 312.363,340.211 c 0,9.625 0,21.07 0,31.769" /></g><g
         id="g170"><path
           id="path172"
           style="fill:#000000;fill-opacity:1;fill-rule:nonzero;stroke:#000000;stroke-width:1.25;stroke-linecap:butt;stroke-linejoin:miter;stroke-miterlimit:4;stroke-dasharray:none;stroke-opacity:1"
           d="m 316.742,371.984 -4.379,12.5 -4.371,-12.5 z" /></g><g
         id="g174"><path
           id="path176"
           style="fill:#fa8072;fill-opacity:1;fill-rule:nonzero;stroke:#000000;stroke-width:1.25;stroke-linecap:butt;stroke-linejoin:miter;stroke-miterlimit:4;stroke-dasharray:none;stroke-opacity:1"
           d="m 421.113,385 c 0,0 -37.5,0 -37.5,0 -7.5,0 -15,7.5 -15,15 0,0 0,15 0,15 0,7.5 7.5,15 15,15 0,0 37.5,0 37.5,0 7.5,0 15,-7.5 15,-15 0,0 0,-15 0,-15 0,-7.5 -7.5,-15 -15,-15" /></g><text
         id="text180"
         style="font-variant:normal;font-weight:normal;font-size:17.4987793px;font-family:Tahoma;-inkscape-font-specification:Tahoma;writing-mode:lr-tb;fill:#000000;fill-opacity:1;fill-rule:nonzero;stroke:none"
         transform="translate(379.91795,412.75)"><tspan
           id="tspan178"
           y="0"
           x="0 7.0170102 16.76383 23.063391 32.26775 37.832359">&quot;href&quot;</tspan></text>
<g
         id="g182"><path
           id="path184"
           style="fill:none;stroke:#000000;stroke-width:1.25;stroke-linecap:butt;stroke-linejoin:miter;stroke-miterlimit:4;stroke-dasharray:none;stroke-opacity:1"
           d="m 331.453,336.586 c 14.137,14.141 33.453,33.453 48.356,48.355" /></g><g
         transform="scale(1,0.99905)"
         id="g186"><path
           id="path188"
           style="fill:#add8e6;fill-opacity:1;fill-rule:nonzero;stroke:#000000;stroke-width:0.87950498;stroke-linecap:butt;stroke-linejoin:miter;stroke-miterlimit:4;stroke-dasharray:none;stroke-opacity:1"
           d="m 491.648,53.574 c 0,-8.742 -10.632,-15.831 -23.746,-15.831 -13.113,0 -23.746,7.089 -23.746,15.831 0,8.743 10.633,15.832 23.746,15.832 13.114,0 23.746,-7.089 23.746,-15.832 z" /></g><g
         transform="scale(1,0.99905)"
         id="g190"><path
           id="path192"
           style="fill:#fa8072;fill-opacity:1;fill-rule:nonzero;stroke:#000000;stroke-width:0.87950498;stroke-linecap:butt;stroke-linejoin:miter;stroke-miterlimit:4;stroke-dasharray:none;stroke-opacity:1"
           d="m 481.094,84.182 c 0,0 -26.387,0 -26.387,0 -5.273,0 -10.551,5.278 -10.551,10.556 0,0 0,10.553 0,10.553 0,5.275 5.278,10.553 10.551,10.553 0,0 26.387,0 26.387,0 5.277,0 10.554,-5.278 10.554,-10.553 0,0 0,-10.553 0,-10.553 0,-5.278 -5.277,-10.556 -10.554,-10.556" /></g><text
         id="text196"
         style="font-variant:normal;font-weight:normal;font-size:12.31221485px;font-family:Tahoma;-inkscape-font-specification:Tahoma;writing-mode:lr-tb;fill:#000000;fill-opacity:1;fill-rule:nonzero;stroke:none"
         transform="matrix(1,0,0,0.99905054,338.90028,103.60926)"><tspan
           id="tspan194"
           y="0"
           x="0 8.3107452 15.488767 24.969172 31.088343 34.855881 42.230896 46.343178 50.455456 54.887856 57.695038 64.417511 71.275414 75.387695">HTML Attribute</tspan></text>
<g
         transform="scale(1,0.99905)"
         id="g198"><path
           id="path200"
           style="fill:#d3d3d3;fill-opacity:1;fill-rule:nonzero;stroke:#000000;stroke-width:0.87950498;stroke-linecap:butt;stroke-linejoin:miter;stroke-miterlimit:4;stroke-dasharray:none;stroke-opacity:1"
           d="m 444.156,130.62 h 47.492 v 31.663 h -47.492 z" /></g><text
         id="text206"
         style="font-variant:normal;font-weight:normal;font-size:12.31221485px;font-family:Tahoma;-inkscape-font-specification:Tahoma;writing-mode:lr-tb;fill:#000000;fill-opacity:1;fill-rule:nonzero;stroke:none"
         transform="matrix(1,0,0,0.99905054,350.13596,150.00299)"><tspan
           id="tspan202"
           y="0"
           x="0 7.1780214 13.654246 19.748793 23.861073 27.702484 34.486515 38.598793 43.031193 45.838375 52.696281">Text String</tspan><tspan
           id="tspan204"
           y="-92.602554"
           x="-10.921206 -2.6104605 4.5675607 14.047966 20.167137 23.971611 30.878765 33.685951 40.162174 50.492123 56.968349 63.826252">HTML Element</tspan></text>
</g></g></svg>