<?xml version="1.0" encoding="UTF-8" standalone="no"?>
<svg
   xmlns:dc="http://purl.org/dc/elements/1.1/"
   xmlns:cc="http://creativecommons.org/ns#"
   xmlns:rdf="http://www.w3.org/1999/02/22-rdf-syntax-ns#"
   xmlns:svg="http://www.w3.org/2000/svg"
   xmlns="http://www.w3.org/2000/svg"
   viewBox="0 0 817.33331 704"
   height="704"
   width="817.33331"
   xml:space="preserve"
   id="svg2"
   version="1.1"><metadata
     id="metadata8"><rdf:RDF><cc:Work
         rdf:about=""><dc:format>image/svg+xml</dc:format><dc:type
           rdf:resource="http://purl.org/dc/dcmitype/StillImage" /><dc:title></dc:title></cc:Work></rdf:RDF></metadata><defs
     id="defs6" /><g
     transform="matrix(1.3333333,0,0,-1.3333333,0,704)"
     id="g10"><g
       id="g12"><g
         transform="matrix(1,0,0,-1,0,528)"
         id="g14"><path
           id="path16"
           style="fill:#ffffff;fill-opacity:1;fill-rule:nonzero;stroke:#ffffff;stroke-width:1.25;stroke-linecap:butt;stroke-linejoin:miter;stroke-miterlimit:4;stroke-dasharray:none;stroke-opacity:1"
           d="M 0.27,0 H 612.235 V 527.5 H 0.27 Z" /></g><g
         transform="matrix(1,0,0,-1,0,528)"
         id="g18"><path
           id="path20"
           style="fill:#e6e6fa;fill-opacity:1;fill-rule:nonzero;stroke:#000000;stroke-width:1.25;stroke-linecap:butt;stroke-linejoin:miter;stroke-miterlimit:4;stroke-dasharray:none;stroke-opacity:1"
           d="m 98.34,263.75 c 0,-12.426 -20.785,-22.5 -46.422,-22.5 -25.641,0 -46.426,10.074 -46.426,22.5 0,12.426 20.785,22.5 46.426,22.5 25.637,0 46.422,-10.074 46.422,-22.5 z" /></g><text
         id="text24"
         style="font-variant:normal;font-weight:normal;font-size:17.4987793px;font-family:'DejaVu Sans';-inkscape-font-specification:DejaVuSans;writing-mode:lr-tb;fill:#000000;fill-opacity:1;fill-rule:nonzero;stroke:none"
         transform="matrix(1,0,0,-1,25.6875,259)"><tspan
           id="tspan22"
           y="0"
           x="0 12.144153 21.243517 26.090679 30.937841 42.032066">Rslidy</tspan></text>
<g
         transform="matrix(1,0,0,-1,0,528)"
         id="g26"><path
           id="path28"
           style="fill:#e6e6fa;fill-opacity:1;fill-rule:nonzero;stroke:#000000;stroke-width:1.25;stroke-linecap:butt;stroke-linejoin:miter;stroke-miterlimit:4;stroke-dasharray:none;stroke-opacity:1"
           d="M 305.777,27.5 C 305.777,15.074 280.762,5 249.906,5 c -30.859,0 -55.871,10.074 -55.871,22.5 0,12.426 25.012,22.5 55.871,22.5 30.856,0 55.871,-10.074 55.871,-22.5 z" /></g><text
         id="text32"
         style="font-variant:normal;font-weight:normal;font-size:17.4987793px;font-family:'DejaVu Sans';-inkscape-font-specification:DejaVuSans;writing-mode:lr-tb;fill:#000000;fill-opacity:1;fill-rule:nonzero;stroke:none"
         transform="matrix(1,0,0,-1,215.10937,495.25)"><tspan
           id="tspan30"
           y="0"
           x="0 12.214148 22.905901 33.982628 40.842152 51.603901 62.680626">Content</tspan></text>
<g
         transform="matrix(1,0,0,-1,0,528)"
         id="g34"><path
           id="path36"
           style="fill:none;stroke:#000000;stroke-width:1.25;stroke-linecap:butt;stroke-linejoin:miter;stroke-miterlimit:4;stroke-dasharray:none;stroke-opacity:1"
           d="M 58.602,228.688 C 68.992,183.637 93.293,105.93 143.566,61.25 158.332,48.125 178.215,40.102 196.789,35.199" /></g><g
         transform="matrix(1,0,0,-1,0,528)"
         id="g38"><path
           id="path40"
           style="fill:#000000;fill-opacity:1;fill-rule:nonzero;stroke:#000000;stroke-width:1.25;stroke-linecap:butt;stroke-linejoin:miter;stroke-miterlimit:4;stroke-dasharray:none;stroke-opacity:1"
           d="m 62.852,229.727 -6.93,11.285 -1.617,-13.145 z" /></g><g
         transform="matrix(1,0,0,-1,0,528)"
         id="g42"><path
           id="path44"
           style="fill:#e6e6fa;fill-opacity:1;fill-rule:nonzero;stroke:#000000;stroke-width:1.25;stroke-linecap:butt;stroke-linejoin:miter;stroke-miterlimit:4;stroke-dasharray:none;stroke-opacity:1"
           d="m 356.336,95 c 0,-12.426 -47.652,-22.5 -106.43,-22.5 -58.781,0 -106.429,10.074 -106.429,22.5 0,12.426 47.648,22.5 106.429,22.5 58.778,0 106.43,-10.074 106.43,-22.5 z" /></g><text
         id="text48"
         style="font-variant:normal;font-weight:normal;font-size:17.4987793px;font-family:'DejaVu Sans';-inkscape-font-specification:DejaVuSans;writing-mode:lr-tb;fill:#000000;fill-opacity:1;fill-rule:nonzero;stroke:none"
         transform="matrix(1,0,0,-1,175.85156,427.75)"><tspan
           id="tspan46"
           y="0"
           x="0 13.141583 23.815838 38.899784 48.646606 54.193718 67.667778 78.429527 84.589096 89.436256 100.51299 105.36015 112.21967 117.06683 127.75858 138.83531">HTML Definitions</tspan></text>
<g
         transform="matrix(1,0,0,-1,0,528)"
         id="g50"><path
           id="path52"
           style="fill:none;stroke:#000000;stroke-width:1.25;stroke-linecap:butt;stroke-linejoin:miter;stroke-miterlimit:4;stroke-dasharray:none;stroke-opacity:1"
           d="m 66.656,230.293 c 15.117,-30.625 41.426,-75.078 76.91,-101.543 9.625,-7.18 20.829,-12.863 32.274,-17.352" /></g><g
         transform="matrix(1,0,0,-1,0,528)"
         id="g54"><path
           id="path56"
           style="fill:#000000;fill-opacity:1;fill-rule:nonzero;stroke:#000000;stroke-width:1.25;stroke-linecap:butt;stroke-linejoin:miter;stroke-miterlimit:4;stroke-dasharray:none;stroke-opacity:1"
           d="m 70.555,232.277 -9.325,9.403 1.426,-13.164 z" /></g><g
         transform="matrix(1,0,0,-1,0,528)"
         id="g58"><path
           id="path60"
           style="fill:#e6e6fa;fill-opacity:1;fill-rule:nonzero;stroke:#000000;stroke-width:1.25;stroke-linecap:butt;stroke-linejoin:miter;stroke-miterlimit:4;stroke-dasharray:none;stroke-opacity:1"
           d="m 337.551,162.5 c 0,-12.426 -39.242,-22.5 -87.645,-22.5 -48.406,0 -87.644,10.074 -87.644,22.5 0,12.426 39.238,22.5 87.644,22.5 48.403,0 87.645,-10.074 87.645,-22.5 z" /></g><text
         id="text64"
         style="font-variant:normal;font-weight:normal;font-size:17.4987793px;font-family:'DejaVu Sans';-inkscape-font-specification:DejaVuSans;writing-mode:lr-tb;fill:#000000;fill-opacity:1;fill-rule:nonzero;stroke:none"
         transform="matrix(1,0,0,-1,189.78906,360.25)"><tspan
           id="tspan62"
           y="0"
           x="0 5.1446409 22.188452 32.897705 43.991932 54.753681 60.300793 72.269958 77.117119 87.878868 102.17537 112.93712">Image Viewer</tspan></text>
<g
         transform="matrix(1,0,0,-1,0,528)"
         id="g66"><path
           id="path68"
           style="fill:none;stroke:#000000;stroke-width:1.25;stroke-linecap:butt;stroke-linejoin:miter;stroke-miterlimit:4;stroke-dasharray:none;stroke-opacity:1"
           d="m 84.457,235.699 c 16.789,-13.375 38.109,-28.754 59.109,-39.449 13.809,-7.031 29.372,-12.965 44.243,-17.801" /></g><g
         transform="matrix(1,0,0,-1,0,528)"
         id="g70"><path
           id="path72"
           style="fill:#000000;fill-opacity:1;fill-rule:nonzero;stroke:#000000;stroke-width:1.25;stroke-linecap:butt;stroke-linejoin:miter;stroke-miterlimit:4;stroke-dasharray:none;stroke-opacity:1"
           d="m 87.086,239.203 -12.453,4.508 6.922,-11.289 z" /></g><g
         transform="matrix(1,0,0,-1,0,528)"
         id="g74"><path
           id="path76"
           style="fill:#e6e6fa;fill-opacity:1;fill-rule:nonzero;stroke:#000000;stroke-width:1.25;stroke-linecap:butt;stroke-linejoin:miter;stroke-miterlimit:4;stroke-dasharray:none;stroke-opacity:1"
           d="m 313.711,230 c 0,-12.426 -28.566,-22.5 -63.805,-22.5 -35.238,0 -63.804,10.074 -63.804,22.5 0,12.426 28.566,22.5 63.804,22.5 35.239,0 63.805,-10.074 63.805,-22.5 z" /></g><text
         id="text80"
         style="font-variant:normal;font-weight:normal;font-size:17.4987793px;font-family:'DejaVu Sans';-inkscape-font-specification:DejaVuSans;writing-mode:lr-tb;fill:#000000;fill-opacity:1;fill-rule:nonzero;stroke:none"
         transform="matrix(1,0,0,-1,208.71484,292.75)"><tspan
           id="tspan78"
           y="0"
           x="0 13.771539 24.113317 34.875065 42.067066 52.408844 57.256004 68.017754">Overview</tspan></text>
<g
         transform="matrix(1,0,0,-1,0,528)"
         id="g82"><path
           id="path84"
           style="fill:none;stroke:#000000;stroke-width:1.25;stroke-linecap:butt;stroke-linejoin:miter;stroke-miterlimit:4;stroke-dasharray:none;stroke-opacity:1"
           d="m 108.75,254.063 c 26.129,-4.454 57.082,-9.731 83.332,-14.208" /></g><g
         transform="matrix(1,0,0,-1,0,528)"
         id="g86"><path
           id="path88"
           style="fill:#000000;fill-opacity:1;fill-rule:nonzero;stroke:#000000;stroke-width:1.25;stroke-linecap:butt;stroke-linejoin:miter;stroke-miterlimit:4;stroke-dasharray:none;stroke-opacity:1"
           d="m 109.406,258.387 -13.054,-2.211 11.586,-6.414 z" /></g><g
         transform="matrix(1,0,0,-1,0,528)"
         id="g90"><path
           id="path92"
           style="fill:#e6e6fa;fill-opacity:1;fill-rule:nonzero;stroke:#000000;stroke-width:1.25;stroke-linecap:butt;stroke-linejoin:miter;stroke-miterlimit:4;stroke-dasharray:none;stroke-opacity:1"
           d="m 335.414,297.5 c 0,-12.426 -38.285,-22.5 -85.508,-22.5 -47.226,0 -85.511,10.074 -85.511,22.5 0,12.426 38.285,22.5 85.511,22.5 47.223,0 85.508,-10.074 85.508,-22.5 z" /></g><text
         id="text96"
         style="font-variant:normal;font-weight:normal;font-size:17.4987793px;font-family:'DejaVu Sans';-inkscape-font-specification:DejaVuSans;writing-mode:lr-tb;fill:#000000;fill-opacity:1;fill-rule:nonzero;stroke:none"
         transform="matrix(1,0,0,-1,190.95703,225.25)"><tspan
           id="tspan94"
           y="0"
           x="0 10.551764 17.743761 22.590923 33.667652 40.527172 46.074284 57.16851 67.93026 74.78978 81.6493 86.496468 97.573189 108.66742">Print Settings</tspan></text>
<g
         transform="matrix(1,0,0,-1,0,528)"
         id="g98"><path
           id="path100"
           style="fill:none;stroke:#000000;stroke-width:1.25;stroke-linecap:butt;stroke-linejoin:miter;stroke-miterlimit:4;stroke-dasharray:none;stroke-opacity:1"
           d="m 109.262,273.523 c 21.472,3.665 46.148,7.868 68.773,11.727" /></g><g
         transform="matrix(1,0,0,-1,0,528)"
         id="g102"><path
           id="path104"
           style="fill:#000000;fill-opacity:1;fill-rule:nonzero;stroke:#000000;stroke-width:1.25;stroke-linecap:butt;stroke-linejoin:miter;stroke-miterlimit:4;stroke-dasharray:none;stroke-opacity:1"
           d="m 107.938,277.738 -11.586,-6.414 13.054,-2.211 z" /></g><g
         transform="matrix(1,0,0,-1,0,528)"
         id="g106"><path
           id="path108"
           style="fill:#e6e6fa;fill-opacity:1;fill-rule:nonzero;stroke:#000000;stroke-width:1.25;stroke-linecap:butt;stroke-linejoin:miter;stroke-miterlimit:4;stroke-dasharray:none;stroke-opacity:1"
           d="m 307.207,365 c 0,-12.426 -25.656,-22.5 -57.301,-22.5 -31.648,0 -57.301,10.074 -57.301,22.5 0,12.426 25.653,22.5 57.301,22.5 31.645,0 57.301,-10.074 57.301,-22.5 z" /></g><text
         id="text112"
         style="font-variant:normal;font-weight:normal;font-size:17.4987793px;font-family:'DejaVu Sans';-inkscape-font-specification:DejaVuSans;writing-mode:lr-tb;fill:#000000;fill-opacity:1;fill-rule:nonzero;stroke:none"
         transform="matrix(1,0,0,-1,214.01953,157.75)"><tspan
           id="tspan110"
           y="0"
           x="0 11.094226 21.855974 28.715496 35.575016 40.42218 51.498905 62.593132">Settings</tspan></text>
<g
         transform="matrix(1,0,0,-1,0,528)"
         id="g114"><path
           id="path116"
           style="fill:none;stroke:#000000;stroke-width:1.25;stroke-linecap:butt;stroke-linejoin:miter;stroke-miterlimit:4;stroke-dasharray:none;stroke-opacity:1"
           d="m 84.457,291.801 c 16.789,13.375 38.109,28.754 59.109,39.449 17.95,9.141 38.864,16.426 57.375,21.852" /></g><g
         transform="matrix(1,0,0,-1,0,528)"
         id="g118"><path
           id="path120"
           style="fill:#000000;fill-opacity:1;fill-rule:nonzero;stroke:#000000;stroke-width:1.25;stroke-linecap:butt;stroke-linejoin:miter;stroke-miterlimit:4;stroke-dasharray:none;stroke-opacity:1"
           d="m 81.555,295.078 -6.922,-11.289 12.453,4.508 z" /></g><g
         transform="matrix(1,0,0,-1,0,528)"
         id="g122"><path
           id="path124"
           style="fill:#e6e6fa;fill-opacity:1;fill-rule:nonzero;stroke:#000000;stroke-width:1.25;stroke-linecap:butt;stroke-linejoin:miter;stroke-miterlimit:4;stroke-dasharray:none;stroke-opacity:1"
           d="m 304.324,432.5 c 0,-12.426 -24.363,-22.5 -54.418,-22.5 -30.054,0 -54.418,10.074 -54.418,22.5 0,12.426 24.364,22.5 54.418,22.5 30.055,0 54.418,-10.074 54.418,-22.5 z" /></g><text
         id="text128"
         style="font-variant:normal;font-weight:normal;font-size:17.4987793px;font-family:'DejaVu Sans';-inkscape-font-specification:DejaVuSans;writing-mode:lr-tb;fill:#000000;fill-opacity:1;fill-rule:nonzero;stroke:none"
         transform="matrix(1,0,0,-1,216.91016,90.25)"><tspan
           id="tspan126"
           y="0"
           x="0 10.674255 21.366009 32.057762 36.904926 47.999149 58.708405">Toolbar</tspan></text>
<g
         transform="matrix(1,0,0,-1,0,528)"
         id="g130"><path
           id="path132"
           style="fill:none;stroke:#000000;stroke-width:1.25;stroke-linecap:butt;stroke-linejoin:miter;stroke-miterlimit:4;stroke-dasharray:none;stroke-opacity:1"
           d="m 66.656,297.207 c 15.117,30.625 41.426,75.078 76.91,101.543 16.149,12.043 36.723,19.871 55.469,24.922" /></g><g
         transform="matrix(1,0,0,-1,0,528)"
         id="g134"><path
           id="path136"
           style="fill:#000000;fill-opacity:1;fill-rule:nonzero;stroke:#000000;stroke-width:1.25;stroke-linecap:butt;stroke-linejoin:miter;stroke-miterlimit:4;stroke-dasharray:none;stroke-opacity:1"
           d="m 62.656,298.984 -1.426,-13.164 9.325,9.403 z" /></g><g
         transform="matrix(1,0,0,-1,0,528)"
         id="g138"><path
           id="path140"
           style="fill:#e6e6fa;fill-opacity:1;fill-rule:nonzero;stroke:#000000;stroke-width:1.25;stroke-linecap:butt;stroke-linejoin:miter;stroke-miterlimit:4;stroke-dasharray:none;stroke-opacity:1"
           d="m 286.922,500 c 0,-12.426 -16.574,-22.5 -37.016,-22.5 -20.445,0 -37.015,10.074 -37.015,22.5 0,12.426 16.57,22.5 37.015,22.5 20.442,0 37.016,-10.074 37.016,-22.5 z" /></g><text
         id="text144"
         style="font-variant:normal;font-weight:normal;font-size:17.4987793px;font-family:'DejaVu Sans';-inkscape-font-specification:DejaVuSans;writing-mode:lr-tb;fill:#000000;fill-opacity:1;fill-rule:nonzero;stroke:none"
         transform="matrix(1,0,0,-1,230.65234,22.75)"><tspan
           id="tspan142"
           y="0"
           x="0 12.791608 19.651129 24.498291 29.345453">Utils</tspan></text>
<g
         transform="matrix(1,0,0,-1,0,528)"
         id="g146"><path
           id="path148"
           style="fill:none;stroke:#000000;stroke-width:1.25;stroke-linecap:butt;stroke-linejoin:miter;stroke-miterlimit:4;stroke-dasharray:none;stroke-opacity:1"
           d="m 58.602,298.813 c 10.39,45.05 34.691,122.757 84.964,167.437 19.254,17.113 47.207,25.555 69.618,29.715" /></g><g
         transform="matrix(1,0,0,-1,0,528)"
         id="g150"><path
           id="path152"
           style="fill:#000000;fill-opacity:1;fill-rule:nonzero;stroke:#000000;stroke-width:1.25;stroke-linecap:butt;stroke-linejoin:miter;stroke-miterlimit:4;stroke-dasharray:none;stroke-opacity:1"
           d="m 54.305,299.633 1.617,-13.145 6.93,11.285 z" /></g><g
         transform="matrix(1,0,0,-1,0,528)"
         id="g154"><path
           id="path156"
           style="fill:#e6e6fa;fill-opacity:1;fill-rule:nonzero;stroke:#000000;stroke-width:1.25;stroke-linecap:butt;stroke-linejoin:miter;stroke-miterlimit:4;stroke-dasharray:none;stroke-opacity:1"
           d="M 607.105,27.5 C 607.105,15.074 561.051,5 504.238,5 447.43,5 401.375,15.074 401.375,27.5 c 0,12.426 46.055,22.5 102.863,22.5 56.813,0 102.867,-10.074 102.867,-22.5 z" /></g><text
         id="text160"
         style="font-variant:normal;font-weight:normal;font-size:17.4987793px;font-family:'DejaVu Sans';-inkscape-font-specification:DejaVuSans;writing-mode:lr-tb;fill:#000000;fill-opacity:1;fill-rule:nonzero;stroke:none"
         transform="matrix(1,0,0,-1,431.95312,495.25)"><tspan
           id="tspan158"
           y="0"
           x="0 11.094226 15.941388 20.788549 31.882776 42.644524 48.191639 58.865894 66.057892 76.767143 87.843872 96.943237 101.7904 108.64992 113.49708 124.18884 135.26556">Slide Transitions</tspan></text>
<g
         transform="matrix(1,0,0,-1,0,528)"
         id="g162"><path
           id="path164"
           style="fill:none;stroke:#000000;stroke-width:1.25;stroke-linecap:butt;stroke-linejoin:miter;stroke-miterlimit:4;stroke-dasharray:none;stroke-opacity:1"
           d="m 318.547,27.5 c 25.406,0 54.805,0 82.605,0" /></g><g
         transform="matrix(1,0,0,-1,0,528)"
         id="g166"><path
           id="path168"
           style="fill:#000000;fill-opacity:1;fill-rule:nonzero;stroke:#000000;stroke-width:1.25;stroke-linecap:butt;stroke-linejoin:miter;stroke-miterlimit:4;stroke-dasharray:none;stroke-opacity:1"
           d="m 318.535,31.875 -12.5,-4.375 12.5,-4.375 z" /></g><g
         transform="matrix(1,0,0,-1,0,528)"
         id="g170"><path
           id="path172"
           style="fill:#e6e6fa;fill-opacity:1;fill-rule:nonzero;stroke:#000000;stroke-width:1.25;stroke-linecap:butt;stroke-linejoin:miter;stroke-miterlimit:4;stroke-dasharray:none;stroke-opacity:1"
           d="m 600.586,95 c 0,-12.426 -43.137,-22.5 -96.348,-22.5 -53.207,0 -96.343,10.074 -96.343,22.5 0,12.426 43.136,22.5 96.343,22.5 53.211,0 96.348,-10.074 96.348,-22.5 z" /></g><text
         id="text176"
         style="font-variant:normal;font-weight:normal;font-size:17.4987793px;font-family:'DejaVu Sans';-inkscape-font-specification:DejaVuSans;writing-mode:lr-tb;fill:#000000;fill-opacity:1;fill-rule:nonzero;stroke:none"
         transform="matrix(1,0,0,-1,436.24609,427.75)"><tspan
           id="tspan174"
           y="0"
           x="0 5.1446409 14.751471 25.443224 36.519951 42.067066 55.541126 66.302872 72.46244 77.309608 88.38633 93.233498 100.09302 104.94018 115.63194 126.70866">Icon Definitions</tspan></text>
<g
         transform="matrix(1,0,0,-1,0,528)"
         id="g178"><path
           id="path180"
           style="fill:none;stroke:#000000;stroke-width:1.25;stroke-linecap:butt;stroke-linejoin:miter;stroke-miterlimit:4;stroke-dasharray:none;stroke-opacity:1"
           d="m 369.129,95 c 12.894,0 25.898,0 38.476,0" /></g><g
         transform="matrix(1,0,0,-1,0,528)"
         id="g182"><path
           id="path184"
           style="fill:#000000;fill-opacity:1;fill-rule:nonzero;stroke:#000000;stroke-width:1.25;stroke-linecap:butt;stroke-linejoin:miter;stroke-miterlimit:4;stroke-dasharray:none;stroke-opacity:1"
           d="m 368.793,99.375 -12.5,-4.375 12.5,-4.375 z" /></g><g
         transform="matrix(1,0,0,-1,0,528)"
         id="g186"><path
           id="path188"
           style="fill:#e6e6fa;fill-opacity:1;fill-rule:nonzero;stroke:#000000;stroke-width:1.25;stroke-linecap:butt;stroke-linejoin:miter;stroke-miterlimit:4;stroke-dasharray:none;stroke-opacity:1"
           d="m 561.52,162.5 c 0,-12.426 -25.645,-22.5 -57.282,-22.5 -31.633,0 -57.277,10.074 -57.277,22.5 0,12.426 25.644,22.5 57.277,22.5 31.637,0 57.282,-10.074 57.282,-22.5 z" /></g><text
         id="text192"
         style="font-variant:normal;font-weight:normal;font-size:17.4987793px;font-family:'DejaVu Sans';-inkscape-font-specification:DejaVuSans;writing-mode:lr-tb;fill:#000000;fill-opacity:1;fill-rule:nonzero;stroke:none"
         transform="matrix(1,0,0,-1,470.05078,360.25)"><tspan
           id="tspan190"
           y="0"
           x="0 10.674255 21.436005 31.777782 38.637302 44.184418 55.226147">Text.EN</tspan></text>
<g
         transform="matrix(1,0,0,-1,0,528)"
         id="g194"><path
           id="path196"
           style="fill:none;stroke:#000000;stroke-width:1.25;stroke-linecap:butt;stroke-linejoin:miter;stroke-miterlimit:4;stroke-dasharray:none;stroke-opacity:1"
           d="m 328.543,115.871 c 41.906,11.121 92.082,24.438 128.066,33.988" /></g><g
         transform="matrix(1,0,0,-1,0,528)"
         id="g198"><path
           id="path200"
           style="fill:#000000;fill-opacity:1;fill-rule:nonzero;stroke:#000000;stroke-width:1.25;stroke-linecap:butt;stroke-linejoin:miter;stroke-miterlimit:4;stroke-dasharray:none;stroke-opacity:1"
           d="m 327.355,120.082 -10.957,-7.434 13.204,-1.023 z" /></g></g></g></svg>