<?xml version="1.0" encoding="utf-8" standalone="no"?>
<!DOCTYPE svg PUBLIC "-//W3C//DTD SVG 1.1//EN"
  "http://www.w3.org/Graphics/SVG/1.1/DTD/svg11.dtd">
<svg xmlns:xlink="http://www.w3.org/1999/xlink" width="572.4pt" height="503.116875pt" viewBox="0 0 572.4 503.116875" xmlns="http://www.w3.org/2000/svg" version="1.1">
 <metadata>
  <rdf:RDF xmlns:dc="http://purl.org/dc/elements/1.1/" xmlns:cc="http://creativecommons.org/ns#" xmlns:rdf="http://www.w3.org/1999/02/22-rdf-syntax-ns#">
   <cc:Work>
    <dc:type rdf:resource="http://purl.org/dc/dcmitype/StillImage"/>
    <dc:date>2026-05-05T15:25:54.261277</dc:date>
    <dc:format>image/svg+xml</dc:format>
    <dc:creator>
     <cc:Agent>
      <dc:title>Matplotlib v3.10.8, https://matplotlib.org/</dc:title>
     </cc:Agent>
    </dc:creator>
   </cc:Work>
  </rdf:RDF>
 </metadata>
 <defs>
  <style type="text/css">*{stroke-linejoin: round; stroke-linecap: butt}</style>
 </defs>
 <g id="figure_1">
  <g id="patch_1">
   <path d="M 0 503.116875 
L 572.4 503.116875 
L 572.4 0 
L 0 0 
z
" style="fill: #ffffff"/>
  </g>
  <g id="axes_1">
   <g id="patch_2">
    <path d="M 63 451.564875 
L 174.6 451.564875 
L 163.44 229.804875 
L 74.16 229.804875 
z
" clip-path="url(#pd25b6fcb43)" style="fill: #333333; stroke: #333333; stroke-linejoin: miter"/>
   </g>
   <g id="patch_3">
    <path d="M 118.8 234.240075 
C 127.679 234.240075 136.195534 231.436151 142.473935 226.445835 
C 148.752336 221.455519 152.28 214.686248 152.28 207.628875 
C 152.28 200.571502 148.752336 193.802231 142.473935 188.811915 
C 136.195534 183.821599 127.679 181.017675 118.8 181.017675 
C 109.921 181.017675 101.404466 183.821599 95.126065 188.811915 
C 88.847664 193.802231 85.32 200.571502 85.32 207.628875 
C 85.32 214.686248 88.847664 221.455519 95.126065 226.445835 
C 101.404466 231.436151 109.921 234.240075 118.8 234.240075 
z
" clip-path="url(#pd25b6fcb43)" style="fill: #333333; stroke: #333333; stroke-linejoin: miter"/>
   </g>
   <g id="patch_4">
    <path d="M 253.278 451.564875 
L 319.122 451.564875 
L 312.5376 302.542155 
L 259.8624 302.542155 
z
" clip-path="url(#pd25b6fcb43)" style="fill: #333333; stroke: #333333; stroke-linejoin: miter"/>
   </g>
   <g id="patch_5">
    <path d="M 286.2 305.158923 
C 291.43861 305.158923 296.463365 303.504608 300.167622 300.560321 
C 303.871878 297.616035 305.9532 293.622165 305.9532 289.458315 
C 305.9532 285.294465 303.871878 281.300595 300.167622 278.356309 
C 296.463365 275.412022 291.43861 273.757707 286.2 273.757707 
C 280.96139 273.757707 275.936635 275.412022 272.232378 278.356309 
C 268.528122 281.300595 266.4468 285.294465 266.4468 289.458315 
C 266.4468 293.622165 268.528122 297.616035 272.232378 300.560321 
C 275.936635 303.504608 280.96139 305.158923 286.2 305.158923 
z
" clip-path="url(#pd25b6fcb43)" style="fill: #333333; stroke: #333333; stroke-linejoin: miter"/>
   </g>
   <g id="patch_6">
    <path d="M 429.048 451.564875 
L 478.152 451.564875 
L 473.2416 329.153355 
L 433.9584 329.153355 
z
" clip-path="url(#pd25b6fcb43)" style="fill: #333333; stroke: #333333; stroke-linejoin: miter"/>
   </g>
   <g id="patch_7">
    <path d="M 453.6 331.104843 
C 457.50676 331.104843 461.254035 329.871116 464.016531 327.675377 
C 466.779028 325.479638 468.3312 322.501159 468.3312 319.395915 
C 468.3312 316.290671 466.779028 313.312192 464.016531 311.116453 
C 461.254035 308.920714 457.50676 307.686987 453.6 307.686987 
C 449.69324 307.686987 445.945965 308.920714 443.183469 311.116453 
C 440.420972 313.312192 438.8688 316.290671 438.8688 319.395915 
C 438.8688 322.501159 440.420972 325.479638 443.183469 327.675377 
C 445.945965 329.871116 449.69324 331.104843 453.6 331.104843 
z
" clip-path="url(#pd25b6fcb43)" style="fill: #333333; stroke: #333333; stroke-linejoin: miter"/>
   </g>
   <g id="text_1">
    <!-- 27% -->
    <g transform="translate(99.65125 123.184375) scale(0.16 -0.16)">
     <defs>
      <path id="DejaVuSans-Bold-32" d="M 1844 884 
L 3897 884 
L 3897 0 
L 506 0 
L 506 884 
L 2209 2388 
Q 2438 2594 2547 2791 
Q 2656 2988 2656 3200 
Q 2656 3528 2436 3728 
Q 2216 3928 1850 3928 
Q 1569 3928 1234 3808 
Q 900 3688 519 3450 
L 519 4475 
Q 925 4609 1322 4679 
Q 1719 4750 2100 4750 
Q 2938 4750 3402 4381 
Q 3866 4013 3866 3353 
Q 3866 2972 3669 2642 
Q 3472 2313 2841 1759 
L 1844 884 
z
" transform="scale(0.015625)"/>
      <path id="DejaVuSans-Bold-37" d="M 428 4666 
L 3944 4666 
L 3944 3988 
L 2125 0 
L 953 0 
L 2675 3781 
L 428 3781 
L 428 4666 
z
" transform="scale(0.015625)"/>
      <path id="DejaVuSans-Bold-25" d="M 4959 1925 
Q 4738 1925 4616 1733 
Q 4494 1541 4494 1184 
Q 4494 825 4614 633 
Q 4734 441 4959 441 
Q 5184 441 5303 633 
Q 5422 825 5422 1184 
Q 5422 1541 5301 1733 
Q 5181 1925 4959 1925 
z
M 4959 2450 
Q 5541 2450 5875 2112 
Q 6209 1775 6209 1184 
Q 6209 594 5875 251 
Q 5541 -91 4959 -91 
Q 4378 -91 4042 251 
Q 3706 594 3706 1184 
Q 3706 1772 4042 2111 
Q 4378 2450 4959 2450 
z
M 2094 -91 
L 1403 -91 
L 4319 4750 
L 5013 4750 
L 2094 -91 
z
M 1453 4750 
Q 2034 4750 2367 4411 
Q 2700 4072 2700 3481 
Q 2700 2891 2367 2550 
Q 2034 2209 1453 2209 
Q 872 2209 539 2550 
Q 206 2891 206 3481 
Q 206 4072 539 4411 
Q 872 4750 1453 4750 
z
M 1453 4225 
Q 1228 4225 1106 4031 
Q 984 3838 984 3481 
Q 984 3122 1106 2926 
Q 1228 2731 1453 2731 
Q 1678 2731 1798 2926 
Q 1919 3122 1919 3481 
Q 1919 3838 1797 4031 
Q 1675 4225 1453 4225 
z
" transform="scale(0.015625)"/>
     </defs>
     <use xlink:href="#DejaVuSans-Bold-32"/>
     <use xlink:href="#DejaVuSans-Bold-37" transform="translate(69.580078 0)"/>
     <use xlink:href="#DejaVuSans-Bold-25" transform="translate(139.160156 0)"/>
    </g>
    <!-- (1964) -->
    <g transform="translate(89.2225 141.100875) scale(0.16 -0.16)">
     <defs>
      <path id="DejaVuSans-Bold-28" d="M 2413 -844 
L 1484 -844 
Q 1006 -72 778 623 
Q 550 1319 550 2003 
Q 550 2688 779 3389 
Q 1009 4091 1484 4856 
L 2413 4856 
Q 2013 4116 1813 3408 
Q 1613 2700 1613 2009 
Q 1613 1319 1811 609 
Q 2009 -100 2413 -844 
z
" transform="scale(0.015625)"/>
      <path id="DejaVuSans-Bold-31" d="M 750 831 
L 1813 831 
L 1813 3847 
L 722 3622 
L 722 4441 
L 1806 4666 
L 2950 4666 
L 2950 831 
L 4013 831 
L 4013 0 
L 750 0 
L 750 831 
z
" transform="scale(0.015625)"/>
      <path id="DejaVuSans-Bold-39" d="M 641 103 
L 641 966 
Q 928 831 1190 764 
Q 1453 697 1709 697 
Q 2247 697 2547 995 
Q 2847 1294 2900 1881 
Q 2688 1725 2447 1647 
Q 2206 1569 1925 1569 
Q 1209 1569 770 1986 
Q 331 2403 331 3084 
Q 331 3838 820 4291 
Q 1309 4744 2131 4744 
Q 3044 4744 3544 4128 
Q 4044 3513 4044 2388 
Q 4044 1231 3459 570 
Q 2875 -91 1856 -91 
Q 1528 -91 1228 -42 
Q 928 6 641 103 
z
M 2125 2350 
Q 2441 2350 2600 2554 
Q 2759 2759 2759 3169 
Q 2759 3575 2600 3781 
Q 2441 3988 2125 3988 
Q 1809 3988 1650 3781 
Q 1491 3575 1491 3169 
Q 1491 2759 1650 2554 
Q 1809 2350 2125 2350 
z
" transform="scale(0.015625)"/>
      <path id="DejaVuSans-Bold-36" d="M 2316 2303 
Q 2000 2303 1842 2098 
Q 1684 1894 1684 1484 
Q 1684 1075 1842 870 
Q 2000 666 2316 666 
Q 2634 666 2792 870 
Q 2950 1075 2950 1484 
Q 2950 1894 2792 2098 
Q 2634 2303 2316 2303 
z
M 3803 4544 
L 3803 3681 
Q 3506 3822 3243 3889 
Q 2981 3956 2731 3956 
Q 2194 3956 1894 3657 
Q 1594 3359 1544 2772 
Q 1750 2925 1990 3001 
Q 2231 3078 2516 3078 
Q 3231 3078 3670 2659 
Q 4109 2241 4109 1563 
Q 4109 813 3618 361 
Q 3128 -91 2303 -91 
Q 1394 -91 895 523 
Q 397 1138 397 2266 
Q 397 3422 980 4083 
Q 1563 4744 2578 4744 
Q 2900 4744 3203 4694 
Q 3506 4644 3803 4544 
z
" transform="scale(0.015625)"/>
      <path id="DejaVuSans-Bold-34" d="M 2356 3675 
L 1038 1722 
L 2356 1722 
L 2356 3675 
z
M 2156 4666 
L 3494 4666 
L 3494 1722 
L 4159 1722 
L 4159 850 
L 3494 850 
L 3494 0 
L 2356 0 
L 2356 850 
L 288 850 
L 288 1881 
L 2156 4666 
z
" transform="scale(0.015625)"/>
      <path id="DejaVuSans-Bold-29" d="M 513 -844 
Q 913 -100 1113 609 
Q 1313 1319 1313 2009 
Q 1313 2700 1113 3408 
Q 913 4116 513 4856 
L 1441 4856 
Q 1916 4091 2145 3389 
Q 2375 2688 2375 2003 
Q 2375 1319 2147 623 
Q 1919 -72 1441 -844 
L 513 -844 
z
" transform="scale(0.015625)"/>
     </defs>
     <use xlink:href="#DejaVuSans-Bold-28"/>
     <use xlink:href="#DejaVuSans-Bold-31" transform="translate(45.703125 0)"/>
     <use xlink:href="#DejaVuSans-Bold-39" transform="translate(115.283203 0)"/>
     <use xlink:href="#DejaVuSans-Bold-36" transform="translate(184.863281 0)"/>
     <use xlink:href="#DejaVuSans-Bold-34" transform="translate(254.443359 0)"/>
     <use xlink:href="#DejaVuSans-Bold-29" transform="translate(324.023438 0)"/>
    </g>
   </g>
   <g id="text_2">
    <!-- 16.0% -->
    <g transform="translate(258.44625 123.184375) scale(0.16 -0.16)">
     <defs>
      <path id="DejaVuSans-Bold-2e" d="M 653 1209 
L 1778 1209 
L 1778 0 
L 653 0 
L 653 1209 
z
" transform="scale(0.015625)"/>
      <path id="DejaVuSans-Bold-30" d="M 2944 2338 
Q 2944 3213 2780 3570 
Q 2616 3928 2228 3928 
Q 1841 3928 1675 3570 
Q 1509 3213 1509 2338 
Q 1509 1453 1675 1090 
Q 1841 728 2228 728 
Q 2613 728 2778 1090 
Q 2944 1453 2944 2338 
z
M 4147 2328 
Q 4147 1169 3647 539 
Q 3147 -91 2228 -91 
Q 1306 -91 806 539 
Q 306 1169 306 2328 
Q 306 3491 806 4120 
Q 1306 4750 2228 4750 
Q 3147 4750 3647 4120 
Q 4147 3491 4147 2328 
z
" transform="scale(0.015625)"/>
     </defs>
     <use xlink:href="#DejaVuSans-Bold-31"/>
     <use xlink:href="#DejaVuSans-Bold-36" transform="translate(69.580078 0)"/>
     <use xlink:href="#DejaVuSans-Bold-2e" transform="translate(139.160156 0)"/>
     <use xlink:href="#DejaVuSans-Bold-30" transform="translate(177.148438 0)"/>
     <use xlink:href="#DejaVuSans-Bold-25" transform="translate(246.728516 0)"/>
    </g>
    <!-- (1975) -->
    <g transform="translate(256.6225 141.100875) scale(0.16 -0.16)">
     <defs>
      <path id="DejaVuSans-Bold-35" d="M 678 4666 
L 3669 4666 
L 3669 3781 
L 1638 3781 
L 1638 3059 
Q 1775 3097 1914 3117 
Q 2053 3138 2203 3138 
Q 3056 3138 3531 2711 
Q 4006 2284 4006 1522 
Q 4006 766 3489 337 
Q 2972 -91 2053 -91 
Q 1656 -91 1267 -14 
Q 878 63 494 219 
L 494 1166 
Q 875 947 1217 837 
Q 1559 728 1863 728 
Q 2300 728 2551 942 
Q 2803 1156 2803 1522 
Q 2803 1891 2551 2103 
Q 2300 2316 1863 2316 
Q 1603 2316 1309 2248 
Q 1016 2181 678 2041 
L 678 4666 
z
" transform="scale(0.015625)"/>
     </defs>
     <use xlink:href="#DejaVuSans-Bold-28"/>
     <use xlink:href="#DejaVuSans-Bold-31" transform="translate(45.703125 0)"/>
     <use xlink:href="#DejaVuSans-Bold-39" transform="translate(115.283203 0)"/>
     <use xlink:href="#DejaVuSans-Bold-37" transform="translate(184.863281 0)"/>
     <use xlink:href="#DejaVuSans-Bold-35" transform="translate(254.443359 0)"/>
     <use xlink:href="#DejaVuSans-Bold-29" transform="translate(324.023438 0)"/>
    </g>
   </g>
   <g id="text_3">
    <!-- 12.0% -->
    <g transform="translate(425.84625 123.184375) scale(0.16 -0.16)">
     <use xlink:href="#DejaVuSans-Bold-31"/>
     <use xlink:href="#DejaVuSans-Bold-32" transform="translate(69.580078 0)"/>
     <use xlink:href="#DejaVuSans-Bold-2e" transform="translate(139.160156 0)"/>
     <use xlink:href="#DejaVuSans-Bold-30" transform="translate(177.148438 0)"/>
     <use xlink:href="#DejaVuSans-Bold-25" transform="translate(246.728516 0)"/>
    </g>
    <!-- (1990) -->
    <g transform="translate(424.0225 141.100875) scale(0.16 -0.16)">
     <use xlink:href="#DejaVuSans-Bold-28"/>
     <use xlink:href="#DejaVuSans-Bold-31" transform="translate(45.703125 0)"/>
     <use xlink:href="#DejaVuSans-Bold-39" transform="translate(115.283203 0)"/>
     <use xlink:href="#DejaVuSans-Bold-39" transform="translate(184.863281 0)"/>
     <use xlink:href="#DejaVuSans-Bold-30" transform="translate(254.443359 0)"/>
     <use xlink:href="#DejaVuSans-Bold-29" transform="translate(324.023438 0)"/>
    </g>
   </g>
   <g id="text_4">
    <!-- THE SHRINKING FAMILY DOCTOR (AREA VS HEIGHT) -->
    <g transform="translate(27.996875 22.396875) scale(0.2 -0.2)">
     <defs>
      <path id="DejaVuSans-54" d="M -19 4666 
L 3928 4666 
L 3928 4134 
L 2272 4134 
L 2272 0 
L 1638 0 
L 1638 4134 
L -19 4134 
L -19 4666 
z
" transform="scale(0.015625)"/>
      <path id="DejaVuSans-48" d="M 628 4666 
L 1259 4666 
L 1259 2753 
L 3553 2753 
L 3553 4666 
L 4184 4666 
L 4184 0 
L 3553 0 
L 3553 2222 
L 1259 2222 
L 1259 0 
L 628 0 
L 628 4666 
z
" transform="scale(0.015625)"/>
      <path id="DejaVuSans-45" d="M 628 4666 
L 3578 4666 
L 3578 4134 
L 1259 4134 
L 1259 2753 
L 3481 2753 
L 3481 2222 
L 1259 2222 
L 1259 531 
L 3634 531 
L 3634 0 
L 628 0 
L 628 4666 
z
" transform="scale(0.015625)"/>
      <path id="DejaVuSans-20" transform="scale(0.015625)"/>
      <path id="DejaVuSans-53" d="M 3425 4513 
L 3425 3897 
Q 3066 4069 2747 4153 
Q 2428 4238 2131 4238 
Q 1616 4238 1336 4038 
Q 1056 3838 1056 3469 
Q 1056 3159 1242 3001 
Q 1428 2844 1947 2747 
L 2328 2669 
Q 3034 2534 3370 2195 
Q 3706 1856 3706 1288 
Q 3706 609 3251 259 
Q 2797 -91 1919 -91 
Q 1588 -91 1214 -16 
Q 841 59 441 206 
L 441 856 
Q 825 641 1194 531 
Q 1563 422 1919 422 
Q 2459 422 2753 634 
Q 3047 847 3047 1241 
Q 3047 1584 2836 1778 
Q 2625 1972 2144 2069 
L 1759 2144 
Q 1053 2284 737 2584 
Q 422 2884 422 3419 
Q 422 4038 858 4394 
Q 1294 4750 2059 4750 
Q 2388 4750 2728 4690 
Q 3069 4631 3425 4513 
z
" transform="scale(0.015625)"/>
      <path id="DejaVuSans-52" d="M 2841 2188 
Q 3044 2119 3236 1894 
Q 3428 1669 3622 1275 
L 4263 0 
L 3584 0 
L 2988 1197 
Q 2756 1666 2539 1819 
Q 2322 1972 1947 1972 
L 1259 1972 
L 1259 0 
L 628 0 
L 628 4666 
L 2053 4666 
Q 2853 4666 3247 4331 
Q 3641 3997 3641 3322 
Q 3641 2881 3436 2590 
Q 3231 2300 2841 2188 
z
M 1259 4147 
L 1259 2491 
L 2053 2491 
Q 2509 2491 2742 2702 
Q 2975 2913 2975 3322 
Q 2975 3731 2742 3939 
Q 2509 4147 2053 4147 
L 1259 4147 
z
" transform="scale(0.015625)"/>
      <path id="DejaVuSans-49" d="M 628 4666 
L 1259 4666 
L 1259 0 
L 628 0 
L 628 4666 
z
" transform="scale(0.015625)"/>
      <path id="DejaVuSans-4e" d="M 628 4666 
L 1478 4666 
L 3547 763 
L 3547 4666 
L 4159 4666 
L 4159 0 
L 3309 0 
L 1241 3903 
L 1241 0 
L 628 0 
L 628 4666 
z
" transform="scale(0.015625)"/>
      <path id="DejaVuSans-4b" d="M 628 4666 
L 1259 4666 
L 1259 2694 
L 3353 4666 
L 4166 4666 
L 1850 2491 
L 4331 0 
L 3500 0 
L 1259 2247 
L 1259 0 
L 628 0 
L 628 4666 
z
" transform="scale(0.015625)"/>
      <path id="DejaVuSans-47" d="M 3809 666 
L 3809 1919 
L 2778 1919 
L 2778 2438 
L 4434 2438 
L 4434 434 
Q 4069 175 3628 42 
Q 3188 -91 2688 -91 
Q 1594 -91 976 548 
Q 359 1188 359 2328 
Q 359 3472 976 4111 
Q 1594 4750 2688 4750 
Q 3144 4750 3555 4637 
Q 3966 4525 4313 4306 
L 4313 3634 
Q 3963 3931 3569 4081 
Q 3175 4231 2741 4231 
Q 1884 4231 1454 3753 
Q 1025 3275 1025 2328 
Q 1025 1384 1454 906 
Q 1884 428 2741 428 
Q 3075 428 3337 486 
Q 3600 544 3809 666 
z
" transform="scale(0.015625)"/>
      <path id="DejaVuSans-46" d="M 628 4666 
L 3309 4666 
L 3309 4134 
L 1259 4134 
L 1259 2759 
L 3109 2759 
L 3109 2228 
L 1259 2228 
L 1259 0 
L 628 0 
L 628 4666 
z
" transform="scale(0.015625)"/>
      <path id="DejaVuSans-41" d="M 2188 4044 
L 1331 1722 
L 3047 1722 
L 2188 4044 
z
M 1831 4666 
L 2547 4666 
L 4325 0 
L 3669 0 
L 3244 1197 
L 1141 1197 
L 716 0 
L 50 0 
L 1831 4666 
z
" transform="scale(0.015625)"/>
      <path id="DejaVuSans-4d" d="M 628 4666 
L 1569 4666 
L 2759 1491 
L 3956 4666 
L 4897 4666 
L 4897 0 
L 4281 0 
L 4281 4097 
L 3078 897 
L 2444 897 
L 1241 4097 
L 1241 0 
L 628 0 
L 628 4666 
z
" transform="scale(0.015625)"/>
      <path id="DejaVuSans-4c" d="M 628 4666 
L 1259 4666 
L 1259 531 
L 3531 531 
L 3531 0 
L 628 0 
L 628 4666 
z
" transform="scale(0.015625)"/>
      <path id="DejaVuSans-59" d="M -13 4666 
L 666 4666 
L 1959 2747 
L 3244 4666 
L 3922 4666 
L 2272 2222 
L 2272 0 
L 1638 0 
L 1638 2222 
L -13 4666 
z
" transform="scale(0.015625)"/>
      <path id="DejaVuSans-44" d="M 1259 4147 
L 1259 519 
L 2022 519 
Q 2988 519 3436 956 
Q 3884 1394 3884 2338 
Q 3884 3275 3436 3711 
Q 2988 4147 2022 4147 
L 1259 4147 
z
M 628 4666 
L 1925 4666 
Q 3281 4666 3915 4102 
Q 4550 3538 4550 2338 
Q 4550 1131 3912 565 
Q 3275 0 1925 0 
L 628 0 
L 628 4666 
z
" transform="scale(0.015625)"/>
      <path id="DejaVuSans-4f" d="M 2522 4238 
Q 1834 4238 1429 3725 
Q 1025 3213 1025 2328 
Q 1025 1447 1429 934 
Q 1834 422 2522 422 
Q 3209 422 3611 934 
Q 4013 1447 4013 2328 
Q 4013 3213 3611 3725 
Q 3209 4238 2522 4238 
z
M 2522 4750 
Q 3503 4750 4090 4092 
Q 4678 3434 4678 2328 
Q 4678 1225 4090 567 
Q 3503 -91 2522 -91 
Q 1538 -91 948 565 
Q 359 1222 359 2328 
Q 359 3434 948 4092 
Q 1538 4750 2522 4750 
z
" transform="scale(0.015625)"/>
      <path id="DejaVuSans-43" d="M 4122 4306 
L 4122 3641 
Q 3803 3938 3442 4084 
Q 3081 4231 2675 4231 
Q 1875 4231 1450 3742 
Q 1025 3253 1025 2328 
Q 1025 1406 1450 917 
Q 1875 428 2675 428 
Q 3081 428 3442 575 
Q 3803 722 4122 1019 
L 4122 359 
Q 3791 134 3420 21 
Q 3050 -91 2638 -91 
Q 1578 -91 968 557 
Q 359 1206 359 2328 
Q 359 3453 968 4101 
Q 1578 4750 2638 4750 
Q 3056 4750 3426 4639 
Q 3797 4528 4122 4306 
z
" transform="scale(0.015625)"/>
      <path id="DejaVuSans-28" d="M 1984 4856 
Q 1566 4138 1362 3434 
Q 1159 2731 1159 2009 
Q 1159 1288 1364 580 
Q 1569 -128 1984 -844 
L 1484 -844 
Q 1016 -109 783 600 
Q 550 1309 550 2009 
Q 550 2706 781 3412 
Q 1013 4119 1484 4856 
L 1984 4856 
z
" transform="scale(0.015625)"/>
      <path id="DejaVuSans-56" d="M 1831 0 
L 50 4666 
L 709 4666 
L 2188 738 
L 3669 4666 
L 4325 4666 
L 2547 0 
L 1831 0 
z
" transform="scale(0.015625)"/>
      <path id="DejaVuSans-29" d="M 513 4856 
L 1013 4856 
Q 1481 4119 1714 3412 
Q 1947 2706 1947 2009 
Q 1947 1309 1714 600 
Q 1481 -109 1013 -844 
L 513 -844 
Q 928 -128 1133 580 
Q 1338 1288 1338 2009 
Q 1338 2731 1133 3434 
Q 928 4138 513 4856 
z
" transform="scale(0.015625)"/>
     </defs>
     <use xlink:href="#DejaVuSans-54"/>
     <use xlink:href="#DejaVuSans-48" transform="translate(61.083984 0)"/>
     <use xlink:href="#DejaVuSans-45" transform="translate(136.279297 0)"/>
     <use xlink:href="#DejaVuSans-20" transform="translate(199.462891 0)"/>
     <use xlink:href="#DejaVuSans-53" transform="translate(231.25 0)"/>
     <use xlink:href="#DejaVuSans-48" transform="translate(294.726562 0)"/>
     <use xlink:href="#DejaVuSans-52" transform="translate(369.921875 0)"/>
     <use xlink:href="#DejaVuSans-49" transform="translate(439.404297 0)"/>
     <use xlink:href="#DejaVuSans-4e" transform="translate(468.896484 0)"/>
     <use xlink:href="#DejaVuSans-4b" transform="translate(543.701172 0)"/>
     <use xlink:href="#DejaVuSans-49" transform="translate(609.277344 0)"/>
     <use xlink:href="#DejaVuSans-4e" transform="translate(638.769531 0)"/>
     <use xlink:href="#DejaVuSans-47" transform="translate(713.574219 0)"/>
     <use xlink:href="#DejaVuSans-20" transform="translate(791.064453 0)"/>
     <use xlink:href="#DejaVuSans-46" transform="translate(822.851562 0)"/>
     <use xlink:href="#DejaVuSans-41" transform="translate(871.246094 0)"/>
     <use xlink:href="#DejaVuSans-4d" transform="translate(939.654297 0)"/>
     <use xlink:href="#DejaVuSans-49" transform="translate(1025.933594 0)"/>
     <use xlink:href="#DejaVuSans-4c" transform="translate(1055.425781 0)"/>
     <use xlink:href="#DejaVuSans-59" transform="translate(1097.888672 0)"/>
     <use xlink:href="#DejaVuSans-20" transform="translate(1158.972656 0)"/>
     <use xlink:href="#DejaVuSans-44" transform="translate(1190.759766 0)"/>
     <use xlink:href="#DejaVuSans-4f" transform="translate(1267.761719 0)"/>
     <use xlink:href="#DejaVuSans-43" transform="translate(1346.472656 0)"/>
     <use xlink:href="#DejaVuSans-54" transform="translate(1416.296875 0)"/>
     <use xlink:href="#DejaVuSans-4f" transform="translate(1477.380859 0)"/>
     <use xlink:href="#DejaVuSans-52" transform="translate(1556.091797 0)"/>
     <use xlink:href="#DejaVuSans-20" transform="translate(1625.574219 0)"/>
     <use xlink:href="#DejaVuSans-28" transform="translate(1657.361328 0)"/>
     <use xlink:href="#DejaVuSans-41" transform="translate(1696.375 0)"/>
     <use xlink:href="#DejaVuSans-52" transform="translate(1764.783203 0)"/>
     <use xlink:href="#DejaVuSans-45" transform="translate(1834.265625 0)"/>
     <use xlink:href="#DejaVuSans-41" transform="translate(1897.449219 0)"/>
     <use xlink:href="#DejaVuSans-20" transform="translate(1965.857422 0)"/>
     <use xlink:href="#DejaVuSans-56" transform="translate(1997.644531 0)"/>
     <use xlink:href="#DejaVuSans-53" transform="translate(2066.052734 0)"/>
     <use xlink:href="#DejaVuSans-20" transform="translate(2129.529297 0)"/>
     <use xlink:href="#DejaVuSans-48" transform="translate(2161.316406 0)"/>
     <use xlink:href="#DejaVuSans-45" transform="translate(2236.511719 0)"/>
     <use xlink:href="#DejaVuSans-49" transform="translate(2299.695312 0)"/>
     <use xlink:href="#DejaVuSans-47" transform="translate(2329.1875 0)"/>
     <use xlink:href="#DejaVuSans-48" transform="translate(2406.677734 0)"/>
     <use xlink:href="#DejaVuSans-54" transform="translate(2481.873047 0)"/>
     <use xlink:href="#DejaVuSans-29" transform="translate(2542.957031 0)"/>
    </g>
   </g>
  </g>
 </g>
 <defs>
  <clipPath id="pd25b6fcb43">
   <rect x="7.2" y="52.396875" width="558" height="443.52"/>
  </clipPath>
 </defs>
</svg>
